<svg width="48" height="48" viewBox="0 0 48 48" fill="none" xmlns="http://www.w3.org/2000/svg">
  <rect width="48" height="48" rx="10" fill="#1890FF"/>
  <path d="M24 10C16.268 10 10 16.268 10 24C10 31.732 16.268 38 24 38C31.732 38 38 31.732 38 24C38 16.268 31.732 10 24 10ZM24 13.2C30.016 13.2 34.8 17.984 34.8 24C34.8 30.016 30.016 34.8 24 34.8C17.984 34.8 13.2 30.016 13.2 24C13.2 17.984 17.984 13.2 24 13.2Z" fill="white"/>
  <path d="M34 17.5L31 23L25.5 24.5L31 26L34 31.5" stroke="white" stroke-width="2" stroke-linecap="round" stroke-linejoin="round"/>
  <path d="M14 17.5L17 23L22.5 24.5L17 26L14 31.5" stroke="white" stroke-width="2" stroke-linecap="round" stroke-linejoin="round"/>
  <path d="M24 17V31" stroke="white" stroke-width="2" stroke-linecap="round"/>
  <path d="M19 22L24 17L29 22" stroke="white" stroke-width="2" stroke-linecap="round" stroke-linejoin="round"/>
</svg>
